<svg width="81" height="78" viewBox="0 0 81 78" fill="none" xmlns="http://www.w3.org/2000/svg">
<path d="M1.38929 38.3351C3.06772 27.0122 8.74625 12.5455 19.4983 8.6801C22.7928 7.49213 26.3125 6.94136 29.7136 5.97249C38.1681 3.54027 46.2889 -1.51714 55.2941 0.440699C59.1374 1.27489 62.7154 3.37343 65.9838 5.6951C68.396 7.41775 72.0604 13.3877 73.9358 15.6853C79.9178 22.9216 80.4907 32.6807 80.145 41.5231C79.8616 48.5585 79.1098 55.7586 75.5097 61.5095C73.4594 64.7759 65.9557 74.6737 57.4047 76.9712C48.7151 79.309 39.0947 76.8325 29.9528 77.524C27.7678 77.6788 17.7817 75.7611 15.2369 74.1611C12.3604 72.3339 9.50004 70.362 7.17838 67.8474C4.11901 64.5247 2.16519 60.42 0.677716 56.2953C-1.18766 51.0309 1.38929 38.3351 1.38929 38.3351Z" fill="#E9F1FE"/>
<path d="M50.5321 5.64462L12.7321 11.4694C11.4638 11.6648 10.594 12.8515 10.7894 14.1198L18.6022 64.8211C18.7976 66.0895 19.9843 66.9593 21.2526 66.7638L59.0526 60.9391C60.321 60.7436 61.1908 59.557 60.9953 58.2886L53.1826 7.58731C52.9871 6.31895 51.8005 5.44918 50.5321 5.64462Z" fill="#87ABF4"/>
<path d="M47.8782 8.92451L16.654 13.736C15.3856 13.9314 14.5159 15.1181 14.7113 16.3864L21.6265 61.2629C21.8219 62.5312 23.0086 63.401 24.2769 63.2056L55.5011 58.3941C56.7695 58.1987 57.6393 57.012 57.4438 55.7437L50.5286 10.8672C50.3332 9.59884 49.1465 8.72907 47.8782 8.92451Z" fill="white"/>
<path d="M23.6152 32.8133L47.3445 29.2031" stroke="#537EEB" stroke-width="2" stroke-miterlimit="10" stroke-linecap="round"/>
<path d="M24.498 38.6145L44.7096 35.5391" stroke="#537EEB" stroke-width="2" stroke-miterlimit="10" stroke-linecap="round"/>
<path d="M25.3789 44.4175L38.8526 42.3672" stroke="#537EEB" stroke-width="2" stroke-miterlimit="10" stroke-linecap="round"/>
<path d="M46.0604 13.4793L36.8535 14.8799L38.2541 24.0867L47.461 22.6861L46.0604 13.4793Z" fill="#537EEB"/>
<path d="M70.0659 42.4598L72.2991 41.9472C72.5705 41.8849 72.8398 41.8106 73.1132 41.7603C73.3728 41.693 73.6479 41.7201 73.8895 41.8369C74.131 41.9536 74.3232 42.1523 74.4318 42.3975C74.9564 43.5011 75.4529 44.6187 75.9555 45.7343C76.0806 45.9674 76.1177 46.2378 76.0602 46.4961C76.0026 46.7544 75.8542 46.9834 75.6419 47.1413C75.1554 47.5434 74.6228 47.9032 74.1162 48.2851C73.7825 48.5384 73.4509 48.7916 73.1333 49.063C72.997 49.1736 72.8881 49.3143 72.8152 49.474C72.7424 49.6337 72.7074 49.8082 72.7132 49.9836C72.7353 50.8882 72.7494 51.7927 72.7916 52.6973C72.7977 52.9385 72.8659 53.1742 72.9895 53.3815C73.113 53.5889 73.2878 53.7609 73.4971 53.8812C73.9976 54.1847 74.5022 54.4722 75.0107 54.7777C75.319 54.9612 75.6164 55.1626 75.9012 55.3807C76.1074 55.5183 76.2592 55.7233 76.3307 55.9606C76.4023 56.1979 76.389 56.4527 76.2932 56.6813C75.8911 57.7708 75.4831 58.8589 75.069 59.9457C74.99 60.116 74.8915 60.2765 74.7755 60.4241C74.6782 60.5887 74.5328 60.7197 74.3589 60.7994C74.185 60.8792 73.991 60.9039 73.8026 60.8703C73.0087 60.7437 72.2147 60.607 71.4207 60.4683C71.3908 60.4651 71.3613 60.4597 71.3322 60.4522C70.9912 60.3523 70.6278 60.3589 70.2905 60.4709C69.9533 60.583 69.6582 60.7952 69.4447 61.0794C69.0146 61.6 68.5161 62.0643 68.0377 62.5508C67.8114 62.7703 67.6499 63.048 67.5712 63.3534C67.4925 63.6587 67.4995 63.9798 67.5914 64.2815C67.7924 65.0332 67.9693 65.787 68.1221 66.5468C68.2909 67.383 68.1362 67.7248 67.3764 68.0926C66.319 68.6012 65.2477 69.0776 64.1602 69.5359C63.5451 69.7972 63.119 69.6786 62.7049 69.156C62.2686 68.6255 61.8658 68.0682 61.4988 67.4876C60.93 66.5428 60.148 66.1488 59.0525 66.3016C58.4716 66.382 57.8806 66.376 57.2937 66.4102C57.0284 66.4144 56.7686 66.487 56.5394 66.6207C56.3102 66.7545 56.1193 66.9451 55.9851 67.174C55.7158 67.6162 55.4685 68.0725 55.1811 68.5047C54.9359 68.8906 54.6674 69.2611 54.377 69.6143C54.2555 69.7816 54.0804 69.9024 53.8807 69.9565C53.6811 70.0106 53.469 69.9948 53.2795 69.9117C52.1941 69.4957 51.1026 69.0957 50.0151 68.6856C49.896 68.6364 49.7817 68.5765 49.6734 68.5067C49.0844 68.1489 48.9417 67.8474 49.0543 67.1639C49.1709 66.4463 49.3015 65.7328 49.4161 65.0151C49.4519 64.7795 49.4727 64.5418 49.4784 64.3036C49.4947 64.1192 49.4684 63.9336 49.4015 63.7611C49.3346 63.5885 49.2288 63.4337 49.0925 63.3086C48.4633 62.7317 47.8382 62.1467 47.2151 61.5618C47.0429 61.3945 46.829 61.2764 46.5956 61.2198C46.3623 61.1633 46.1181 61.1703 45.8884 61.2402C45.1245 61.4251 44.3587 61.594 43.5929 61.7708C43.5446 61.7809 43.4964 61.793 43.4461 61.801C42.4551 61.9598 42.1697 61.8432 41.7416 60.9326C41.2551 59.8994 40.8129 58.8441 40.3827 57.7848C40.1335 57.1717 40.246 56.7979 40.7727 56.3958C41.3898 55.9255 42.021 55.4712 42.6722 55.0511C42.9865 54.8732 43.2415 54.6069 43.4055 54.2852C43.5696 53.9636 43.6354 53.6008 43.5949 53.242C43.5406 52.438 43.5185 51.6339 43.4803 50.8299C43.4785 50.645 43.4295 50.4635 43.3381 50.3028C43.2466 50.1421 43.1157 50.0073 42.9577 49.9113C42.3024 49.4932 41.641 49.0871 40.9918 48.663C40.7254 48.4896 40.4728 48.2961 40.236 48.0841C40.0885 47.9681 39.982 47.808 39.9321 47.6272C39.8821 47.4463 39.8914 47.2542 39.9586 47.079C40.3928 45.8529 40.8249 44.6247 41.2812 43.4046C41.3851 43.1756 41.5609 42.9868 41.7818 42.8667C42.0027 42.7466 42.2567 42.7019 42.5054 42.7392C43.1667 42.8156 43.82 42.9523 44.4773 43.0588C44.8271 43.135 45.1829 43.1807 45.5406 43.1955C45.8043 43.2035 46.0629 43.1221 46.2743 42.9644C47.0301 42.2447 47.7558 41.491 48.4714 40.7311C48.593 40.5898 48.6776 40.4205 48.7176 40.2384C48.7576 40.0563 48.7517 39.8672 48.7005 39.6879C48.5317 38.8839 48.3387 38.0979 48.1759 37.2999C48.1007 36.9909 48.0709 36.6727 48.0874 36.3551C48.0965 36.2393 48.1283 36.1265 48.1811 36.023C48.2339 35.9195 48.3066 35.8274 48.395 35.7521C49.612 34.9582 50.9415 34.3518 52.3388 33.9531C52.5451 33.8868 52.7675 33.8902 52.9717 33.9629C53.1759 34.0355 53.3504 34.1734 53.4685 34.3551C54.0353 35.125 54.6162 35.8828 55.175 36.6567C55.2965 36.8396 55.4648 36.9867 55.6625 37.0825C55.8601 37.1783 56.0798 37.2194 56.2987 37.2014C57.2535 37.1632 58.2063 37.1331 59.1611 37.0929C59.3215 37.0842 59.4773 37.0364 59.615 36.9537C59.7526 36.8711 59.868 36.756 59.951 36.6185C60.2365 36.2004 60.5058 35.7702 60.7852 35.3461C61.0646 34.9219 61.332 34.4918 61.6275 34.0777C61.9692 33.5973 62.3752 33.4405 62.926 33.6274C64.0825 34.0214 65.2322 34.4348 66.3753 34.8677C66.6243 34.9509 66.8365 35.1182 66.9755 35.3408C67.1146 35.5635 67.1717 35.8276 67.1372 36.0878C67.0648 36.7592 66.91 37.4205 66.8135 38.0879C66.7353 38.4971 66.7016 38.9136 66.713 39.3301C66.745 39.6139 66.8669 39.8802 67.0608 40.0899C67.7281 40.7733 68.4377 41.4166 69.1292 42.0759C69.252 42.1988 69.3981 42.296 69.5589 42.3619C69.7198 42.4279 69.8921 42.4611 70.0659 42.4598V42.4598ZM65.8447 51.7706C65.8447 47.473 62.4074 44.0759 58.0595 44.0438C54.4896 44.0176 50.4212 47.1514 50.4212 51.8168C50.4386 53.8528 51.2566 55.8002 52.6984 57.2378C54.1402 58.6755 56.0898 59.4879 58.1259 59.4994C63.1009 59.4994 66.0778 55.1757 65.8507 51.7706H65.8447Z" fill="#4461A0"/>
<path d="M58.1518 61.6765C63.6203 61.6765 68.0535 57.2434 68.0535 51.7748C68.0535 46.3062 63.6203 41.873 58.1518 41.873C52.6832 41.873 48.25 46.3062 48.25 51.7748C48.25 57.2434 52.6832 61.6765 58.1518 61.6765Z" fill="#FFB715"/>
<path d="M58.1522 63.3444C64.5422 63.3444 69.7223 58.1642 69.7223 51.7742C69.7223 45.3842 64.5422 40.2041 58.1522 40.2041C51.7622 40.2041 46.582 45.3842 46.582 51.7742C46.582 58.1642 51.7622 63.3444 58.1522 63.3444Z" fill="#FFB715"/>
<path d="M50.8242 50.9844L56.549 57.9614L66.0889 47.2295" stroke="#F48206" stroke-width="3" stroke-linecap="round" stroke-linejoin="round"/>
</svg>
