<svg width="87" height="81" viewBox="0 0 87 81" fill="none" xmlns="http://www.w3.org/2000/svg">
<path d="M19.2807 7.95725C29.1605 1.83339 44.1027 -3.24941 54.1458 2.54784C57.2282 4.32376 59.9635 6.69165 62.9438 8.69211C70.374 13.6524 79.6211 16.6327 84.0098 24.8999C85.8878 28.4313 86.6023 32.5752 86.9493 36.6373C87.1942 39.638 84.9692 46.3947 84.4181 49.3545C82.7238 58.7444 75.5385 65.5827 68.4552 71.1146C62.8213 75.5034 56.7383 79.6472 49.9204 80.627C46.0419 81.1782 33.4472 81.8518 26.0577 76.7282C18.5458 71.5229 14.157 62.4392 7.62492 55.805C6.07354 54.2128 1.01115 45.2107 0.582481 42.1896C0.112986 38.7602 -0.234033 35.2492 0.194637 31.7995C0.766197 27.2474 2.66459 23.0423 4.88959 19.1843C7.7576 14.2852 19.2807 7.95725 19.2807 7.95725Z" fill="#E9F1FE"/>
<path d="M43.4845 61.4924C61.643 61.4924 76.3634 59.426 76.3634 56.8771C76.3634 54.3281 61.643 52.2617 43.4845 52.2617C25.3259 52.2617 10.6055 54.3281 10.6055 56.8771C10.6055 59.426 25.3259 61.4924 43.4845 61.4924Z" fill="#ABC8F7"/>
<path d="M67.1615 18.3389H20.7773V56.4823H67.1615V18.3389Z" fill="#4461A0"/>
<path d="M28.2238 18.3389H24.082V54.3084H28.2238V18.3389Z" fill="white"/>
<path d="M37.2316 18.3389H33.0898V54.3084H37.2316V18.3389Z" fill="white"/>
<path d="M46.2394 18.3389H42.0977V54.3084H46.2394V18.3389Z" fill="white"/>
<path d="M55.2472 18.3389H51.1055V54.3084H55.2472V18.3389Z" fill="white"/>
<path d="M64.257 18.1123H60.1152V54.3084H64.257V18.1123Z" fill="white"/>
<path d="M66.6166 50.2139H21.2674C20.1953 50.2139 19.3262 51.083 19.3262 52.1551V52.3674C19.3262 53.4396 20.1953 54.3087 21.2674 54.3087H66.6166C67.6888 54.3087 68.5579 53.4396 68.5579 52.3674V52.1551C68.5579 51.083 67.6888 50.2139 66.6166 50.2139Z" fill="#ABC8F7"/>
<path d="M19.9594 19.6989H67.6377C69.1666 19.6989 69.6647 17.8618 68.3011 17.2494L45.7653 6.97357C45.213 6.72387 44.6139 6.59473 44.0078 6.59473C43.4016 6.59473 42.8025 6.72387 42.2502 6.97357L19.3041 17.2433C17.9324 17.8577 18.4243 19.6989 19.9594 19.6989Z" fill="#ABC8F7"/>
<path d="M71.6265 53.4551H15.4789C14.3752 53.4551 13.4805 54.3498 13.4805 55.4535V55.4555C13.4805 56.5592 14.3752 57.454 15.4789 57.454H71.6265C72.7302 57.454 73.6249 56.5592 73.6249 55.4555V55.4535C73.6249 54.3498 72.7302 53.4551 71.6265 53.4551Z" fill="#537EEB"/>
<path d="M68.6607 17.0918H19.2819C18.4488 17.0918 17.7734 17.7672 17.7734 18.6003V18.6023C17.7734 19.4355 18.4488 20.1109 19.2819 20.1109H68.6607C69.4938 20.1109 70.1692 19.4355 70.1692 18.6023V18.6003C70.1692 17.7672 69.4938 17.0918 68.6607 17.0918Z" fill="#537EEB"/>
<path d="M24.4368 66.2696L18.4565 76.5452" stroke="#FFB715" stroke-width="4" stroke-miterlimit="10" stroke-linecap="round"/>
<path d="M30.2323 65.2305C36.6087 65.3579 41.8759 60.5505 41.9969 54.4929C42.1179 48.4353 37.0469 43.4214 30.6705 43.2941C24.2941 43.1667 19.0269 47.9741 18.9059 54.0317C18.7849 60.0893 23.856 65.1031 30.2323 65.2305Z" stroke="#F48206" stroke-width="4" stroke-linecap="round" stroke-linejoin="round"/>
</svg>
