<svg width="85" height="83" viewBox="0 0 85 83" fill="none" xmlns="http://www.w3.org/2000/svg">
<path d="M78.4308 60.4295C73.1638 70.7377 63.0467 82.7657 51.5005 82.9934C47.9594 83.0666 44.4081 82.4567 40.8365 82.288C31.9492 81.8814 22.5415 84.1175 14.5343 79.3222C11.1152 77.2792 8.37296 74.1162 5.98444 70.8333C4.23015 68.3939 2.64661 61.4967 1.5916 58.6894C-1.79908 49.8224 0.811012 40.2927 3.99028 31.9299C6.53126 25.2888 9.58247 18.6233 14.888 14.2853C17.9108 11.8175 28.3044 4.75768 37.2344 5.31873C46.3189 5.88587 54.7367 11.3683 63.7216 13.6531C65.8641 14.2121 74.8145 19.2758 76.7314 21.6318C78.8983 24.311 81.0002 27.1203 82.413 30.2874C84.271 34.4607 84.8198 39.0284 84.9092 43.4578C85.0007 49.1008 78.4308 60.4295 78.4308 60.4295Z" fill="#E9F1FE"/>
<path d="M60.4833 27.2207C66.657 20.6578 68.0118 11.9041 63.5093 7.66858C59.0069 3.43309 50.3521 5.31977 44.1784 11.8826C38.0048 18.4454 36.65 27.1992 41.1524 31.4347C45.6549 35.6702 54.3096 33.7835 60.4833 27.2207Z" fill="#F48206"/>
<path d="M58.3985 25.43C64.341 19.1129 65.9535 10.9771 62.0001 7.25815C58.0467 3.53918 50.0246 5.64533 44.0821 11.9624C38.1396 18.2794 36.5271 26.4152 40.4805 30.1342C44.4339 33.8531 52.4561 31.747 58.3985 25.43Z" fill="#FFB715"/>
<path d="M45.7012 31.7522C49.6005 31.6169 54.283 29.3149 58.1025 25.2735C64.0194 19.0138 65.627 10.9503 61.6889 7.26317C60.3402 6.00049 58.5147 5.4164 56.4604 5.44431" fill="white"/>
<path d="M55.8998 23.079C60.4223 18.2715 61.8699 12.2872 59.1332 9.71282C56.3965 7.1384 50.5119 8.94867 45.9894 13.7562C41.467 18.5637 40.0193 24.5479 42.756 27.1223C45.4927 29.6968 51.3774 27.8865 55.8998 23.079Z" stroke="#F48206" stroke-miterlimit="10"/>
<path d="M47.5016 45.7912C48.3698 41.2575 43.7166 36.5565 37.1086 35.2912C30.5006 34.0259 24.44 36.6754 23.5719 41.209C22.7038 45.7427 27.3569 50.4437 33.9649 51.709C40.5729 52.9744 46.6335 50.3249 47.5016 45.7912Z" fill="#F48206"/>
<path d="M47.1577 44.6777C47.9198 40.6975 43.381 36.4835 37.0199 35.2655C30.6588 34.0474 24.8843 36.2866 24.1222 40.2668C23.36 44.247 27.8989 48.4611 34.2599 49.6791C40.621 50.8971 46.3955 48.658 47.1577 44.6777Z" fill="#FFB715"/>
<path d="M25 44.6622C26.7205 46.9751 30.2061 48.9283 34.4808 49.6813C41.1035 50.8506 47.1154 48.7021 47.9101 44.8806C48.189 43.5725 47.807 42.2361 46.9286 41" fill="white"/>
<path d="M44.4611 43.8492C44.9888 41.0936 41.4916 38.1081 36.65 37.181C31.8084 36.2539 27.4557 37.7363 26.9281 40.4919C26.4004 43.2476 29.8976 46.233 34.7392 47.1601C39.5808 48.0872 43.9335 46.6049 44.4611 43.8492Z" stroke="#F48206" stroke-miterlimit="10"/>
<path d="M13.0335 78.0094L6.2277 65.1704C6.17837 65.0776 6.1488 64.9757 6.14085 64.8709C6.1329 64.7662 6.14674 64.6609 6.18151 64.5618C6.21627 64.4627 6.27119 64.3718 6.34282 64.295C6.41445 64.2182 6.50122 64.157 6.59767 64.1154C13.3912 61.1719 13.9157 60.6434 22.2643 55.6631L23.61 54.789C25.6123 53.4921 27.6329 54.0958 29.8974 54.7178C30.8406 54.978 33.6032 55.8196 35.7295 55.783H35.7905L39.3804 55.4862C39.4243 55.4822 39.4685 55.4822 39.5125 55.4862C40.9192 55.6061 41.9051 55.9416 42.6511 56.649C42.9692 56.9459 43.202 57.3224 43.3256 57.7396C43.4491 58.1568 43.4588 58.5994 43.3536 59.0216C43.2485 59.4438 43.0324 59.8302 42.7276 60.1407C42.4229 60.4513 42.0406 60.6747 41.6205 60.7877C36.6036 62.2249 31.5094 60.4015 31.0744 61.9464C30.9674 62.2214 30.9739 62.5276 31.0924 62.7978C31.211 63.068 31.4318 63.2801 31.7066 63.3876L41.2383 66.3982C41.8787 66.6485 42.579 66.7029 43.2504 66.5545C43.9217 66.4061 44.5339 66.0616 45.0091 65.5648L52.5528 57.9662C54.118 56.3278 57.5229 56.1367 59.261 57.5881L59.3057 57.6267C59.9033 58.1248 60.0619 59.0659 59.509 59.5802C55.6955 63.0522 53.0224 66.5283 46.2573 75.5884C45.0864 77.1557 42.5982 78.5258 36.7723 76.306L28.4562 74.2529C24.7382 73.33 21.8354 73.3767 18.6053 75.4359L14.0844 78.3184C13.9956 78.3694 13.8975 78.4019 13.7958 78.4139C13.6942 78.4259 13.5912 78.4172 13.493 78.3883C13.3948 78.3595 13.3034 78.311 13.2244 78.2459C13.1455 78.1808 13.0805 78.1003 13.0335 78.0094Z" fill="#FFAF66"/>
<path d="M3.74609 65.6035C3.74609 65.6035 5.83376 72.3117 11.0357 76.6863L13.8815 78.9223L19.4554 74.9259L12.7147 61.2168L3.74609 65.6035Z" fill="#4461A0"/>
<path d="M12.7148 61.2168L19.4576 74.9279" stroke="#537EEB" stroke-width="4" stroke-miterlimit="10" stroke-linecap="round"/>
</svg>
