<svg width="85" height="76" viewBox="0 0 85 76" fill="none" xmlns="http://www.w3.org/2000/svg">
<path d="M20.5029 7.46606C29.8792 1.72022 44.0597 -3.04883 53.5909 2.39056C56.5162 4.05686 59.112 6.27858 61.9404 8.15556C68.9919 12.8097 77.7676 15.606 81.9327 23.3629C83.7149 26.6763 84.393 30.5643 84.7223 34.3757C84.9548 37.1912 82.8432 43.5308 82.3201 46.3079C80.7122 55.1182 73.8931 61.5344 67.1709 66.7248C61.8242 70.8427 56.0512 74.7307 49.5808 75.65C45.9001 76.1672 33.9474 76.7992 26.9346 71.9919C19.8055 67.1079 15.6405 58.5849 9.44133 52.3602C7.96903 50.8663 3.16469 42.4199 2.75787 39.5853C2.3123 36.3676 1.98297 33.0734 2.38979 29.8365C2.93222 25.5655 4.73385 21.62 6.84544 18.0001C9.55756 13.4034 20.5029 7.46606 20.5029 7.46606Z" fill="#E9F1FE"/>
<path d="M38.8109 29.584H30.5195V55.0955H38.8109V29.584Z" fill="#ABC8F7"/>
<path d="M44.8168 24.125H36.5254V55.0951H44.8168V24.125Z" fill="#ABC8F7"/>
<path d="M35.4395 14.874H30.4414V56.9719H35.4395V14.874Z" fill="#ABC8F7"/>
<path d="M55.4121 16.2148H48.0312V55.095H55.4121V16.2148Z" fill="#ABC8F7"/>
<path d="M58.6284 21.1562H50.4727V55.6504H58.6284V21.1562Z" fill="#ABC8F7"/>
<path d="M30.4417 32.5137H24.7656V56.3781H30.4417V32.5137Z" fill="#ABC8F7"/>
<path d="M72.944 28.377H56.8262V55.0951H72.944V28.377Z" fill="#ABC8F7"/>
<path d="M44.1187 58.8301C58.3485 58.8301 69.884 57.9898 69.884 56.9532C69.884 55.9165 58.3485 55.0762 44.1187 55.0762C29.889 55.0762 18.3535 55.9165 18.3535 56.9532C18.3535 57.9898 29.889 58.8301 44.1187 58.8301Z" fill="#ABC8F7"/>
<path d="M48.4187 35.7314H26.6055V55.9951H48.4187V35.7314Z" fill="#4461A0"/>
<path d="M73.6994 25.9062H46.8105V55.9953H73.6994V25.9062Z" fill="#537EEB"/>
<path d="M46.8104 26.098L60.2548 19.0498L73.6798 26.098H46.0742" fill="#537EEB"/>
<path d="M46.8105 25.9059L60.255 18.7236L73.68 25.9059" stroke="#4461A0" stroke-width="3" stroke-linecap="round" stroke-linejoin="round"/>
<path d="M58.6606 27.9326H52.5195V31.7632H58.6606V27.9326Z" fill="white"/>
<path d="M68.3442 27.9326H62.2031V31.7632H68.3442V27.9326Z" fill="white"/>
<path d="M58.6606 36.0635H52.5195V39.894H58.6606V36.0635Z" fill="white"/>
<path d="M68.3442 36.0635H62.2031V39.894H68.3442V36.0635Z" fill="white"/>
<path d="M44.2533 45.3086H37.5117V47.7602H44.2533V45.3086Z" fill="white"/>
<path d="M44.2533 39.7158H37.5117V42.1674H44.2533V39.7158Z" fill="white"/>
<path d="M58.6606 27.9326V31.7632H52.5195" fill="#ABC8F7"/>
<path d="M68.3442 27.9326V31.7632H62.2031" fill="#ABC8F7"/>
<path d="M58.6606 36.0635V39.894H52.5195" fill="#ABC8F7"/>
<path d="M68.3442 36.0635V39.894H62.2031" fill="#ABC8F7"/>
<path d="M44.2533 45.3086V47.7602H37.5117" fill="#ABC8F7"/>
<path d="M44.2533 39.7158V42.1674H37.5117" fill="#ABC8F7"/>
<path d="M36.5248 45.3086H29.7832V47.7602H36.5248V45.3086Z" fill="white"/>
<path d="M36.5248 39.7158H29.7832V42.1674H36.5248V39.7158Z" fill="white"/>
<path d="M36.5248 45.3086V47.7602H29.7832" fill="#ABC8F7"/>
<path d="M36.5248 39.7158V42.1674H29.7832" fill="#ABC8F7"/>
<path d="M83.0695 51.9905C83.5097 51.7395 83.8952 51.4049 84.2038 51.0058C84.5123 50.6067 84.7378 50.1511 84.8673 49.6653C85.0013 49.1812 85.035 48.6754 84.9664 48.1781C84.8978 47.6808 84.7284 47.2023 84.4682 46.7713C84.2132 46.3383 83.8742 45.9593 83.4706 45.6563C83.067 45.3532 82.6068 45.132 82.1164 45.0054C81.6276 44.8708 81.1163 44.8354 80.6132 44.9012C80.1102 44.967 79.6258 45.1328 79.1892 45.3885L72.3585 49.3148L54.1059 42.167L51.1342 43.8773L63.5325 54.3807L55.8591 58.7648L49.627 55.731L46.3008 57.6463L54.4624 63.984L83.0695 51.9905Z" fill="#FFB715"/>
<path d="M54.4609 63.9669L83.041 51.9906C83.4811 51.7399 83.8665 51.4053 84.1748 51.0061C84.4831 50.607 84.7081 50.1513 84.8368 49.6655C84.9717 49.1815 85.0059 48.6755 84.9373 48.178C84.8687 47.6806 84.6987 47.2021 84.4377 46.7715" fill="#F48206"/>
<path d="M51.7221 63.7003C51.7221 63.7003 45.7167 67.2762 35.7302 70.7045C22.2664 75.3395 7.36909 77.1782 7.11725 66.2611C6.90416 57.2976 23.1188 48.832 20.4842 42.8563C15.8348 32.3223 -6.32716 35.4059 3.47525 25.5039" stroke="#294180" stroke-width="1.5" stroke-miterlimit="10" stroke-linecap="round" stroke-dasharray="2 4"/>
</svg>
