<svg width="85" height="79" viewBox="0 0 85 79" fill="none" xmlns="http://www.w3.org/2000/svg">
<path d="M67.9416 69.5847C58.7045 76.1956 44.4808 82.1281 34.3059 77.1514C31.1929 75.6169 28.3397 73.4878 25.3287 71.7637C17.767 67.4216 8.5338 65.1328 3.72127 57.3964C1.6479 54.078 0.670201 50.0871 0.0703848 46.1501C-0.367481 43.2427 1.36799 36.532 1.68789 33.6046C2.72357 24.3677 9.26757 17.218 15.8116 11.3853C20.994 6.74583 26.6643 2.30595 33.2682 0.89117C37.0191 0.094984 49.2494 -1.39562 56.783 3.10213C64.4647 7.66174 69.3332 16.2023 76.1351 22.2365C77.7506 23.6693 83.2969 32.112 83.8968 35.0194C84.5745 38.3438 85.1524 41.7301 84.9544 45.0945C84.6945 49.5543 83.139 53.7747 81.2036 57.6977C78.7763 62.6764 67.9416 69.5847 67.9416 69.5847Z" fill="#E9F1FE"/>
<path d="M75.2939 56.899L71.446 47.4509C70.7574 45.7602 68.8259 44.9467 67.1319 45.6339L48.7134 53.1057C47.0194 53.7929 46.2043 55.7206 46.8928 57.4112L50.7407 66.8593C51.4293 68.55 53.3607 69.3635 55.0548 68.6763L73.4733 61.2045C75.1673 60.5173 75.9824 58.5897 75.2939 56.899Z" fill="#87ABF4"/>
<path d="M51.5848 61.5856L38.2749 53.2206C37.9921 53.0504 37.7467 52.8248 37.5535 52.5576C37.3602 52.2903 37.223 51.9868 37.1502 51.6653C37.0774 51.3439 37.0704 51.011 37.1297 50.6868C37.1889 50.3625 37.3132 50.0536 37.4951 49.7785L58.9386 17.9889C59.3317 17.4359 59.9235 17.0557 60.5906 16.9274C61.2577 16.7992 61.9487 16.9328 62.5195 17.3005L75.8314 25.6654C76.1141 25.836 76.3593 26.0619 76.5524 26.3294C76.7455 26.5969 76.8825 26.9006 76.9551 27.2222C77.0278 27.5438 77.0345 27.8768 76.9751 28.2011C76.9157 28.5254 76.7912 28.8344 76.6092 29.1096L55.1557 60.8931C54.408 62.0206 52.7965 62.3438 51.5848 61.5856Z" fill="white"/>
<path d="M38.2827 53.2206C37.9999 53.0504 37.7545 52.8248 37.5613 52.5576C37.368 52.2903 37.2308 51.9868 37.158 51.6654C37.0852 51.3439 37.0782 51.011 37.1375 50.6868C37.1967 50.3625 37.3211 50.0536 37.5029 49.7785L58.9384 17.9889C59.3315 17.4359 59.9233 17.0557 60.5904 16.9274C61.2575 16.7992 61.9485 16.9328 62.5193 17.3005" fill="#4461A0"/>
<path d="M75.8365 25.6475C76.1192 25.8181 76.3644 26.0439 76.5575 26.3114C76.7506 26.5789 76.8876 26.8826 76.9602 27.2042C77.0329 27.5259 77.0397 27.8588 76.9802 28.1832C76.9208 28.5075 76.7963 28.8165 76.6143 29.0916L55.1608 60.8752C54.7679 61.4266 54.1772 61.8057 53.5115 61.9339C52.8458 62.0621 52.1563 61.9295 51.5859 61.5636" fill="#294180"/>
<path d="M67.9803 31.8241C67.9336 31.8245 67.8877 31.8113 67.8483 31.7862L66.7807 31.1138C66.7527 31.0971 66.7285 31.0749 66.7096 31.0484C66.6906 31.022 66.6774 30.9919 66.6707 30.9601C66.6634 30.9286 66.6625 30.896 66.668 30.8641C66.6735 30.8322 66.6853 30.8018 66.7027 30.7745C66.738 30.7199 66.7933 30.6812 66.8568 30.6667C66.9203 30.6521 66.9869 30.6629 67.0426 30.6967L68.1203 31.3672C68.1541 31.3888 68.1823 31.4182 68.2025 31.4529C68.2227 31.4876 68.2342 31.5266 68.2362 31.5667C68.2365 31.5994 68.2303 31.6318 68.2179 31.662C68.2056 31.6923 68.1874 31.7198 68.1643 31.743C68.1413 31.7662 68.1138 31.7846 68.0836 31.7971C68.0534 31.8097 68.021 31.8162 67.9883 31.8162L67.9803 31.8241ZM68.7281 31.5129C68.671 31.5122 68.6158 31.492 68.5718 31.4557C68.5278 31.4194 68.4976 31.3691 68.4861 31.3133C68.4797 31.2814 68.4798 31.2486 68.4863 31.2167C68.4928 31.1848 68.5057 31.1546 68.5241 31.1277L69.2299 30.0741C69.2672 30.0205 69.3239 29.9834 69.3881 29.9707C69.4523 29.9581 69.5189 29.9708 69.5738 30.0063C69.6066 30.0284 69.6335 30.0581 69.6523 30.0929C69.6711 30.1276 69.6812 30.1664 69.6818 30.2058C69.6827 30.2553 69.6688 30.304 69.6418 30.3455L68.934 31.3971C68.9121 31.4325 68.8815 31.4618 68.8451 31.482C68.8087 31.5023 68.7677 31.5129 68.7261 31.5129H68.7281ZM65.9609 30.565C65.9149 30.5644 65.87 30.5513 65.831 30.5271L64.7553 29.8546C64.6997 29.8197 64.6601 29.7643 64.6451 29.7004C64.6302 29.6365 64.641 29.5694 64.6753 29.5134C64.7117 29.4594 64.7673 29.4213 64.8308 29.4069C64.8943 29.3924 64.961 29.4027 65.0172 29.4356L66.0929 30.1081C66.1479 30.143 66.1871 30.198 66.2021 30.2614C66.217 30.3248 66.2065 30.3915 66.1728 30.4473C66.1503 30.4835 66.1187 30.5134 66.0813 30.534C66.0438 30.5546 66.0017 30.5653 65.9589 30.565H65.9609ZM70.0497 29.5334C70.0011 29.5336 69.9537 29.5189 69.9137 29.4915C69.8591 29.4549 69.8213 29.3983 69.8085 29.3339C69.7958 29.2695 69.8091 29.2028 69.8457 29.1482L70.5515 28.0946C70.5811 28.0506 70.6241 28.0172 70.6742 27.9994C70.7242 27.9815 70.7787 27.9802 70.8295 27.9957C70.8804 28.0111 70.9249 28.0424 70.9566 28.085C70.9882 28.1276 71.0053 28.1793 71.0054 28.2323C71.0043 28.2812 70.9898 28.3289 70.9634 28.37L70.2556 29.4236C70.2329 29.4574 70.2023 29.4851 70.1664 29.5042C70.1305 29.5233 70.0904 29.5334 70.0497 29.5334ZM63.9415 29.2979C63.8955 29.2976 63.8505 29.2845 63.8116 29.26L62.7339 28.5875C62.6786 28.5522 62.6395 28.4967 62.6249 28.4328C62.6103 28.369 62.6214 28.302 62.6559 28.2463C62.6919 28.1919 62.7476 28.1535 62.8112 28.139C62.8749 28.1245 62.9417 28.1351 62.9978 28.1685L64.0735 28.8409C64.1078 28.862 64.1364 28.8913 64.1567 28.9261C64.1769 28.961 64.1882 29.0002 64.1895 29.0405C64.1897 29.0731 64.1835 29.1055 64.1712 29.1358C64.1588 29.166 64.1406 29.1936 64.1175 29.2167C64.0945 29.2399 64.0671 29.2583 64.0369 29.2709C64.0067 29.2835 63.9743 29.2899 63.9415 29.2899V29.2979ZM61.9241 28.0368C61.8774 28.0371 61.8316 28.024 61.7922 27.9989L60.7165 27.3384C60.689 27.3213 60.6652 27.2989 60.6463 27.2726C60.6275 27.2462 60.6141 27.2165 60.6069 27.1849C60.5996 27.1534 60.5987 27.1208 60.6041 27.0889C60.6096 27.057 60.6213 27.0265 60.6385 26.9991C60.6739 26.9446 60.729 26.9058 60.7924 26.8909C60.8557 26.876 60.9224 26.8862 60.9784 26.9193L62.0561 27.5918C62.09 27.6134 62.1182 27.6428 62.1384 27.6775C62.1585 27.7122 62.1701 27.7512 62.1721 27.7913C62.1728 27.8386 62.1596 27.8851 62.1341 27.925C62.112 27.9608 62.0811 27.9904 62.0444 28.011C62.0077 28.0316 61.9663 28.0426 61.9241 28.0428V28.0368ZM71.3753 27.5579C71.3261 27.5583 71.2779 27.5437 71.2373 27.516C71.1827 27.4794 71.1449 27.4228 71.1321 27.3584C71.1194 27.294 71.1327 27.2273 71.1693 27.1727L71.4712 26.7238L71.2873 26.61C71.2532 26.5887 71.2248 26.5593 71.2046 26.5246C71.1844 26.4898 71.173 26.4506 71.1713 26.4105C71.17 26.3634 71.1825 26.3169 71.2073 26.2768C71.2433 26.2224 71.299 26.184 71.3626 26.1695C71.4263 26.155 71.4931 26.1656 71.5492 26.199L72.167 26.5821L71.5792 27.4541C71.5572 27.4872 71.5276 27.5144 71.4927 27.5335C71.4579 27.5526 71.419 27.563 71.3793 27.5638L71.3753 27.5579ZM59.9068 26.7756C59.863 26.7746 59.8203 26.7622 59.7828 26.7397L59.5469 26.5921L60.3826 25.3429C60.4205 25.29 60.4772 25.2536 60.5411 25.241C60.605 25.2284 60.6713 25.2406 60.7265 25.2751C60.7805 25.312 60.8178 25.3686 60.8305 25.4327C60.8373 25.4645 60.8376 25.4973 60.8314 25.5292C60.8253 25.561 60.8127 25.5914 60.7945 25.6183L60.1587 26.5661C60.1534 26.5986 60.1418 26.6298 60.1247 26.6579C60.103 26.6963 60.0713 26.7281 60.0329 26.7499C59.9945 26.7716 59.9509 26.7826 59.9068 26.7816V26.7756ZM70.4755 26.0573C70.4297 26.0577 70.3846 26.0453 70.3456 26.0214L69.2679 25.3489C69.234 25.3273 69.2058 25.2979 69.1856 25.2632C69.1655 25.2285 69.1539 25.1894 69.1519 25.1494C69.1512 25.102 69.1644 25.0555 69.1899 25.0157C69.2259 24.9613 69.2816 24.9229 69.3452 24.9084C69.4089 24.8939 69.4757 24.9044 69.5318 24.9378L70.6075 25.6103C70.6536 25.6383 70.6891 25.6807 70.7087 25.7309C70.7282 25.7811 70.7307 25.8364 70.7157 25.8881C70.7007 25.9398 70.669 25.9852 70.6256 26.0172C70.5822 26.0492 70.5295 26.0661 70.4755 26.0653V26.0573ZM61.1984 24.8081C61.1492 24.8086 61.101 24.794 61.0604 24.7662C61.0274 24.7442 61.0002 24.7146 60.9811 24.6798C60.9619 24.6451 60.9514 24.6063 60.9504 24.5667C60.95 24.5176 60.9646 24.4695 60.9924 24.429L61.6982 23.3754C61.7358 23.3221 61.7925 23.2854 61.8566 23.2727C61.9206 23.2601 61.987 23.2726 62.0421 23.3075C62.0691 23.3254 62.0922 23.3485 62.1103 23.3753C62.1283 23.4022 62.1408 23.4324 62.1471 23.4641C62.1535 23.4958 62.1534 23.5284 62.1471 23.5601C62.1407 23.5918 62.1282 23.6219 62.1101 23.6488L61.4043 24.7024C61.382 24.7366 61.3515 24.7648 61.3155 24.7843C61.2796 24.8038 61.2393 24.8141 61.1984 24.8141V24.8081ZM68.4581 24.8081C68.4116 24.8075 68.366 24.7944 68.3262 24.7702L67.2505 24.0977C67.216 24.0768 67.1874 24.0475 67.1671 24.0127C67.1469 23.9778 67.1357 23.9385 67.1345 23.8982C67.1328 23.844 67.149 23.7907 67.1805 23.7465C67.2162 23.6923 67.2715 23.654 67.3348 23.6395C67.3982 23.625 67.4647 23.6354 67.5204 23.6687L68.5981 24.3412C68.6437 24.3698 68.6787 24.4123 68.6978 24.4625C68.717 24.5126 68.7193 24.5677 68.7044 24.6192C68.6896 24.6708 68.6582 24.7162 68.6153 24.7484C68.5723 24.7807 68.5199 24.7982 68.4661 24.7982L68.4581 24.8081ZM66.4408 23.547C66.394 23.5477 66.3481 23.5345 66.3088 23.5091L65.2331 22.8366C65.1781 22.8017 65.1389 22.7466 65.1239 22.6833C65.109 22.6199 65.1195 22.5532 65.1532 22.4974C65.1892 22.4431 65.2447 22.4046 65.3082 22.3897C65.3718 22.3749 65.4386 22.3849 65.4951 22.4176L66.5727 23.09C66.6183 23.1186 66.6533 23.1612 66.6725 23.2113C66.6916 23.2615 66.694 23.3165 66.6791 23.3681C66.6642 23.4197 66.6329 23.465 66.5899 23.4973C66.5469 23.5296 66.4946 23.547 66.4408 23.547ZM62.522 22.8446C62.4729 22.8439 62.4251 22.8294 62.384 22.8027C62.3511 22.7805 62.324 22.7509 62.3049 22.7162C62.2858 22.6815 62.2752 22.6427 62.274 22.6032C62.2738 22.5541 62.2884 22.5061 62.316 22.4655L63.0218 21.4119C63.0428 21.3813 63.0701 21.3554 63.1018 21.336C63.1065 21.3028 63.1181 21.2708 63.1358 21.2423C63.1715 21.1875 63.2271 21.1488 63.2909 21.1342C63.3547 21.1197 63.4217 21.1305 63.4777 21.1644L64.5533 21.8349C64.5809 21.8522 64.6048 21.8747 64.6236 21.9012C64.6425 21.9278 64.6559 21.9577 64.6632 21.9894C64.6704 22.0211 64.6713 22.0539 64.6658 22.0859C64.6604 22.118 64.6487 22.1486 64.6313 22.1761C64.596 22.2307 64.5408 22.2695 64.4775 22.2843C64.4141 22.2992 64.3474 22.289 64.2914 22.2559L63.4177 21.7092L62.7279 22.7408C62.704 22.7726 62.6729 22.7983 62.637 22.8156C62.6012 22.833 62.5618 22.8416 62.522 22.8406V22.8446Z" fill="#294180"/>
<path d="M53.4268 39.3667C53.3158 39.3671 53.2072 39.3345 53.1149 39.2729C53.0531 39.2319 53 39.1791 52.9587 39.1175C52.9173 39.0559 52.8886 38.9868 52.8741 38.9141C52.8596 38.8415 52.8597 38.7666 52.8742 38.694C52.8888 38.6213 52.9176 38.5522 52.959 38.4907L58.7572 29.8364C58.8418 29.716 58.9702 29.6334 59.1149 29.6063C59.2597 29.5792 59.4094 29.6097 59.5319 29.6913C59.6544 29.773 59.7401 29.8992 59.7706 30.043C59.801 30.1869 59.7739 30.3369 59.6949 30.461L53.8967 39.1173C53.845 39.1942 53.7751 39.2573 53.6931 39.3008C53.6111 39.3443 53.5197 39.3669 53.4268 39.3667Z" fill="#294180"/>
<path d="M56.7176 40.6257C56.6155 40.6256 56.5153 40.5978 56.4278 40.5453C56.3402 40.4929 56.2686 40.4176 56.2206 40.3277C56.1725 40.2377 56.1499 40.1364 56.155 40.0347C56.1602 39.9329 56.1929 39.8344 56.2498 39.7497L61.6781 31.6541C61.7614 31.53 61.8906 31.444 62.0374 31.415C62.1842 31.386 62.3365 31.4164 62.4609 31.4995C62.5852 31.5826 62.6714 31.7116 62.7005 31.8581C62.7295 32.0046 62.6991 32.1566 62.6158 32.2807L57.1835 40.3763C57.1319 40.4524 57.0626 40.5149 56.9814 40.5584C56.9002 40.6018 56.8097 40.6249 56.7176 40.6257Z" fill="#294180"/>
<path d="M61.0284 50.5554C60.9808 50.5555 60.9342 50.5416 60.8944 50.5155C60.867 50.4981 60.8433 50.4754 60.8247 50.4488C60.8061 50.4221 60.7929 50.3921 60.7861 50.3603C60.7792 50.3286 60.7787 50.2958 60.7846 50.2639C60.7905 50.232 60.8027 50.2015 60.8205 50.1743C60.8568 50.1202 60.9127 50.0823 60.9765 50.0685C61.0402 50.0547 61.1069 50.0662 61.1623 50.1005H61.1743C61.2177 50.1304 61.2504 50.1734 61.2677 50.2232C61.2849 50.273 61.2858 50.3269 61.2702 50.3772C61.2546 50.4275 61.2233 50.4716 61.1809 50.5029C61.1385 50.5342 61.0872 50.5512 61.0344 50.5515L61.0284 50.5554ZM60.0867 49.9568C60.0391 49.9568 59.9925 49.943 59.9527 49.9169L58.885 49.2325C58.8502 49.2097 58.8215 49.1786 58.8016 49.142C58.7817 49.1055 58.7712 49.0645 58.7711 49.0229C58.7711 48.9754 58.785 48.929 58.8111 48.8892C58.8477 48.8355 58.9036 48.7979 58.9672 48.7842C59.0309 48.7705 59.0974 48.7816 59.153 48.8154L60.2206 49.5018C60.2759 49.5374 60.3147 49.5934 60.3286 49.6575C60.3422 49.7212 60.3308 49.7876 60.2966 49.8431C60.2735 49.8772 60.2421 49.9049 60.2055 49.9237C60.1688 49.9426 60.1279 49.9519 60.0867 49.9508V49.9568ZM58.0873 48.6717C58.0397 48.6718 57.9931 48.6579 57.9533 48.6318L56.8857 47.9454C56.8582 47.928 56.8345 47.9053 56.8159 47.8786C56.7973 47.852 56.7842 47.8219 56.7773 47.7902C56.7704 47.7585 56.7699 47.7257 56.7758 47.6937C56.7817 47.6618 56.7939 47.6314 56.8117 47.6042C56.8483 47.5505 56.9042 47.5129 56.9679 47.4991C57.0315 47.4854 57.098 47.4966 57.1536 47.5303L58.2212 48.2168C58.2488 48.2341 58.2726 48.2569 58.2912 48.2836C58.3097 48.3103 58.3227 48.3406 58.3292 48.3724C58.3362 48.4041 58.3368 48.4368 58.331 48.4686C58.3251 48.5005 58.313 48.5309 58.2952 48.558C58.2718 48.5918 58.2404 48.6194 58.2038 48.6382C58.1672 48.657 58.1265 48.6664 58.0853 48.6658L58.0873 48.6717ZM56.0879 47.3847C56.0405 47.3854 55.9939 47.3722 55.9539 47.3468L54.8863 46.6603C54.8524 46.6389 54.8243 46.6095 54.8045 46.5747C54.7846 46.5399 54.7736 46.5008 54.7723 46.4608C54.7716 46.4135 54.7848 46.367 54.8103 46.3271C54.847 46.2728 54.9033 46.2349 54.9674 46.2211C55.0315 46.2073 55.0984 46.2189 55.1542 46.2533L56.2219 46.9377C56.2766 46.9737 56.3153 47.0295 56.3298 47.0933C56.338 47.1294 56.3378 47.1669 56.3294 47.2029C56.321 47.2389 56.3046 47.2725 56.2813 47.3013C56.2581 47.3301 56.2286 47.3533 56.1951 47.3691C56.1616 47.3849 56.125 47.393 56.0879 47.3927V47.3847ZM54.0885 46.0996C54.0413 46.0991 53.995 46.086 53.9546 46.0617L52.8869 45.3753C52.8533 45.3535 52.8254 45.3241 52.8055 45.2894C52.7857 45.2546 52.7745 45.2157 52.7729 45.1757C52.7729 45.1282 52.7868 45.0817 52.8129 45.042C52.8492 44.9879 52.9052 44.95 52.9689 44.9362C53.0327 44.9224 53.0993 44.9339 53.1548 44.9682L54.2225 45.6526C54.2777 45.6882 54.3165 45.7442 54.3304 45.8083C54.3382 45.8443 54.3378 45.8816 54.3292 45.9175C54.3207 45.9533 54.3042 45.9868 54.281 46.0155C54.2578 46.0442 54.2285 46.0673 54.1952 46.0833C54.1619 46.0992 54.1254 46.1075 54.0885 46.1076V46.0996ZM52.0891 44.8145C52.0415 44.8146 51.995 44.8007 51.9552 44.7746L50.8875 44.0902C50.8536 44.0687 50.8255 44.0393 50.8057 44.0045C50.7858 43.9698 50.7748 43.9307 50.7735 43.8906C50.7739 43.8438 50.7878 43.7981 50.8135 43.7589C50.8498 43.7048 50.9058 43.6669 50.9695 43.6531C51.0333 43.6394 51.0999 43.6508 51.1554 43.6851L52.2231 44.3695C52.2679 44.3986 52.302 44.4412 52.3206 44.4912C52.3391 44.5411 52.341 44.5957 52.3259 44.6468C52.3109 44.6979 52.2797 44.7428 52.237 44.7749C52.1944 44.8069 52.1425 44.8243 52.0891 44.8245V44.8145ZM50.0897 43.5295C50.0428 43.5291 49.997 43.5152 49.9578 43.4896L48.8901 42.8051C48.8562 42.7837 48.8282 42.7542 48.8083 42.7195C48.7884 42.6847 48.7774 42.6456 48.7761 42.6056C48.7754 42.5583 48.7886 42.5118 48.8141 42.4719C48.8508 42.4182 48.9067 42.3806 48.9703 42.3668C49.0339 42.3531 49.1004 42.3643 49.156 42.398L50.2257 43.0845C50.2807 43.12 50.3194 43.1759 50.3333 43.2398C50.3471 43.3038 50.3351 43.3706 50.2997 43.4257C50.2741 43.4601 50.24 43.4872 50.2007 43.5043C50.1615 43.5215 50.1184 43.5281 50.0757 43.5235L50.0897 43.5295ZM48.0904 42.2444C48.0428 42.2444 47.9962 42.2305 47.9564 42.2045L46.8727 41.5061C46.8453 41.4886 46.8216 41.466 46.803 41.4393C46.7843 41.4127 46.7712 41.3826 46.7643 41.3509C46.7575 41.3191 46.757 41.2864 46.7629 41.2544C46.7688 41.2225 46.781 41.192 46.7987 41.1649C46.8354 41.1112 46.8913 41.0735 46.9549 41.0598C47.0186 41.0461 47.085 41.0572 47.1406 41.091L48.2083 41.7775C48.2358 41.7944 48.2596 41.8168 48.2782 41.8432C48.2967 41.8696 48.3097 41.8995 48.3163 41.9311C48.3244 41.9673 48.3242 42.0048 48.3158 42.0409C48.3074 42.077 48.291 42.1108 48.2678 42.1397C48.2446 42.1686 48.2151 42.192 48.1816 42.208C48.1482 42.2241 48.1115 42.2324 48.0744 42.2324L48.0904 42.2444ZM46.091 40.9573C46.0436 40.9581 45.997 40.9449 45.957 40.9194L44.8893 40.233C44.8619 40.2155 44.8382 40.1929 44.8196 40.1662C44.801 40.1396 44.7878 40.1095 44.781 40.0778C44.7741 40.046 44.7736 40.0133 44.7795 39.9813C44.7854 39.9494 44.7976 39.919 44.8154 39.8918C44.8517 39.8377 44.9076 39.7997 44.9714 39.786C45.0351 39.7722 45.1018 39.7836 45.1573 39.8179L46.2249 40.5024C46.2697 40.5314 46.3039 40.574 46.3224 40.624C46.3409 40.6739 46.3428 40.7285 46.3278 40.7797C46.3127 40.8308 46.2816 40.8757 46.2389 40.9077C46.1962 40.9397 46.1443 40.9571 46.091 40.9573Z" fill="#294180"/>
<path d="M8.32227 12.7536L48.6539 12.2288C49.0138 12.2234 49.3709 12.2913 49.7036 12.4284C50.0386 12.5678 50.346 12.7658 50.6113 13.013C51.1319 13.5234 51.4294 14.2184 51.4391 14.9466L52.1049 64.9647C52.1093 65.7138 51.8227 66.4355 51.3051 66.9781C51.0461 67.2462 50.7355 67.4593 50.3919 67.6047C50.0484 67.7501 49.6789 67.8247 49.3057 67.8241L9.04804 68.3489L8.32227 12.7536Z" fill="#FF9F0E"/>
<path d="M14.7188 19.7191L14.7388 21.4511L13.9111 21.4711L13.8711 16.7798L15.6705 16.7598C15.917 16.7523 16.163 16.786 16.3983 16.8596C16.5975 16.921 16.7815 17.0237 16.9382 17.1609C17.0856 17.288 17.203 17.4461 17.2821 17.6238C17.3634 17.8129 17.4042 18.0168 17.402 18.2225C17.4087 18.4267 17.3748 18.6302 17.302 18.8211C17.2302 18.9977 17.1195 19.1559 16.9781 19.2841C16.8251 19.4184 16.6471 19.5215 16.4543 19.5874C16.2194 19.6596 15.9743 19.6933 15.7285 19.6871L14.7188 19.7191ZM14.7188 19.0546L15.7065 19.0346C15.9561 19.0495 16.2022 18.9705 16.3963 18.8131C16.468 18.7386 16.5226 18.6494 16.5563 18.5517C16.5892 18.4473 16.6027 18.3378 16.5963 18.2285C16.5958 18.1187 16.5754 18.0098 16.5363 17.9072C16.5027 17.809 16.4473 17.7197 16.3743 17.6458C16.2943 17.5661 16.1982 17.5042 16.0924 17.4642C15.963 17.4237 15.8281 17.4035 15.6925 17.4043L14.7048 17.4243L14.7188 19.0546Z" fill="white"/>
<path d="M20.195 20.284L18.3776 20.304L18.0157 21.3915L17.168 21.4115L18.8754 16.7002H19.5952L21.4307 21.3716L20.5849 21.3915L20.195 20.284ZM18.5955 19.6595L19.9691 19.6395L19.2613 17.7059L18.5955 19.6595Z" fill="white"/>
<path d="M24.4228 20.1225C24.4193 20.0342 24.4059 19.9465 24.3828 19.8611C24.3464 19.7822 24.2907 19.7136 24.2209 19.6616C24.1293 19.5871 24.0277 19.526 23.919 19.48C23.757 19.4201 23.5751 19.3603 23.4131 19.2984C23.2021 19.2366 22.9951 19.162 22.7933 19.0749C22.6185 18.9979 22.4556 18.8964 22.3094 18.7736C22.1759 18.6703 22.0662 18.5397 21.9875 18.3905C21.9065 18.2352 21.8646 18.0626 21.8656 17.8876C21.8644 17.7062 21.9062 17.527 21.9875 17.3648C22.0719 17.2023 22.1882 17.0585 22.3294 16.9418C22.4862 16.8166 22.6644 16.7206 22.8553 16.6584C23.0718 16.596 23.2957 16.5625 23.5211 16.5586C23.7603 16.5511 23.9991 16.5849 24.2269 16.6584C24.4259 16.7198 24.6093 16.8232 24.7647 16.9617C24.9077 17.0851 25.0246 17.2357 25.1086 17.4047C25.1863 17.5752 25.2272 17.7602 25.2286 17.9475L24.4288 17.9674C24.4283 17.8576 24.408 17.7488 24.3688 17.6462C24.3313 17.5558 24.2763 17.4737 24.2069 17.4047C24.1252 17.3318 24.0292 17.2768 23.925 17.2431C23.7955 17.2028 23.6607 17.1826 23.5251 17.1832C23.3948 17.1836 23.2654 17.2038 23.1412 17.2431C23.044 17.2693 22.9543 17.3178 22.8793 17.3848C22.8144 17.4417 22.7596 17.5091 22.7173 17.5843C22.683 17.6669 22.6693 17.7566 22.6773 17.8457C22.6751 17.934 22.6988 18.021 22.7453 18.0961C22.7918 18.1712 22.8592 18.2312 22.9393 18.2687C23.1734 18.4174 23.4341 18.5197 23.707 18.5701C23.9426 18.6301 24.1721 18.7116 24.3928 18.8135C24.5729 18.8902 24.737 18.9998 24.8767 19.1368C25.0031 19.2437 25.1001 19.3811 25.1586 19.5359C25.2231 19.6965 25.2576 19.8676 25.2605 20.0407C25.2556 20.2259 25.2212 20.4091 25.1586 20.5835C25.0853 20.7406 24.9748 20.8776 24.8367 20.9826C24.6765 21.0971 24.4989 21.1853 24.3108 21.244C24.0875 21.307 23.8571 21.3412 23.625 21.3457C23.4005 21.3481 23.1766 21.3205 22.9592 21.2639C22.751 21.211 22.5535 21.1226 22.3754 21.0025C22.1989 20.8845 22.0535 20.7256 21.9516 20.5396C21.8389 20.3438 21.7829 20.1207 21.7896 19.895L22.5894 19.8751C22.5849 20.0073 22.6123 20.1387 22.6693 20.2582C22.726 20.3586 22.8013 20.4474 22.8913 20.5196C22.9887 20.5862 23.0979 20.6336 23.2132 20.6593C23.3436 20.6934 23.4784 20.7075 23.613 20.7012C23.8428 20.7167 24.071 20.6526 24.2589 20.5196C24.3233 20.4623 24.378 20.3949 24.4208 20.3201C24.4028 20.3041 24.4228 20.2023 24.4228 20.1225Z" fill="white"/>
<path d="M28.3916 20.0629C28.3883 19.9745 28.3749 19.8868 28.3517 19.8015C28.3152 19.7225 28.2595 19.6539 28.1897 19.602C28.0986 19.5269 27.9968 19.4657 27.8878 19.4204C27.7258 19.3605 27.5639 19.2987 27.382 19.2388C27.1693 19.177 26.9603 19.1031 26.7561 19.0173C26.5814 18.9403 26.4184 18.8388 26.2723 18.716C26.1388 18.6127 26.029 18.4821 25.9504 18.3329C25.8696 18.1775 25.8277 18.005 25.8284 17.83C25.8275 17.648 25.8692 17.4682 25.9504 17.3052C26.0358 17.1434 26.1519 16.9997 26.2923 16.8822C26.4492 16.7576 26.6273 16.6623 26.8181 16.6008C27.0347 16.5384 27.2586 16.5049 27.4839 16.501C27.7232 16.4935 27.9619 16.5273 28.1897 16.6008C28.3907 16.6607 28.5763 16.7635 28.7335 16.9021C28.8757 17.0263 28.9924 17.1767 29.0774 17.3451C29.1551 17.5163 29.196 17.7019 29.1974 17.8899L28.3976 17.9098C28.3971 17.8 28.3768 17.6912 28.3377 17.5885C28.2997 17.4978 28.2447 17.4152 28.1757 17.3451C28.0935 17.2735 27.9976 17.2192 27.8938 17.1855C27.7645 17.1445 27.6296 17.1236 27.4939 17.1236C27.3635 17.1245 27.2341 17.1454 27.11 17.1855C27.0131 17.2113 26.9235 17.2591 26.8481 17.3251C26.7837 17.3825 26.729 17.4499 26.6862 17.5247C26.6521 17.6074 26.6384 17.697 26.6462 17.7861C26.6437 17.8744 26.6672 17.9615 26.7138 18.0367C26.7603 18.1119 26.8279 18.1718 26.9081 18.2091C27.1421 18.3586 27.4028 18.4616 27.6759 18.5124C27.9104 18.5725 28.1387 18.6547 28.3577 18.7579C28.5372 18.8346 28.7012 18.9435 28.8415 19.0791C28.9677 19.1864 29.0646 19.3236 29.1234 19.4782C29.1877 19.6383 29.2223 19.8087 29.2254 19.9811C29.2206 20.1669 29.1862 20.3508 29.1234 20.5259C29.0502 20.683 28.9397 20.82 28.8015 20.9249C28.6413 21.0395 28.4638 21.1277 28.2757 21.1863C28.0523 21.2488 27.8218 21.2823 27.5899 21.2861C27.3654 21.2892 27.1415 21.2623 26.9241 21.2063C26.7157 21.1522 26.5177 21.0638 26.3383 20.9449C26.1633 20.8257 26.0188 20.6671 25.9164 20.482C25.8038 20.2862 25.7477 20.0631 25.7545 19.8374L26.5542 19.8175C26.5504 19.9492 26.5786 20.08 26.6362 20.1986C26.6922 20.3 26.7676 20.3895 26.8581 20.462C26.9555 20.5286 27.0648 20.576 27.18 20.6017C27.3107 20.6341 27.4454 20.6476 27.5799 20.6416C27.8095 20.6577 28.0376 20.5943 28.2257 20.462C28.2897 20.4042 28.3443 20.3369 28.3876 20.2625L28.3916 20.0629Z" fill="white"/>
<path d="M30.7383 19.4983L30.7583 21.2303L29.9586 21.2503L29.8926 16.563L31.692 16.543C31.9378 16.5355 32.1832 16.5693 32.4178 16.6428C32.619 16.7034 32.8045 16.8068 32.9616 16.9461C33.1097 17.0727 33.2272 17.2309 33.3055 17.409C33.3869 17.5981 33.4277 17.802 33.4255 18.0077C33.4322 18.2119 33.3982 18.4153 33.3255 18.6063C33.2517 18.7861 33.1374 18.9465 32.9916 19.0752C32.8379 19.2096 32.6592 19.3127 32.4658 19.3786C32.2309 19.4508 31.9858 19.4844 31.74 19.4783L30.7383 19.4983ZM30.7383 18.8537L31.708 18.8338C31.8436 18.8344 31.9785 18.8142 32.1079 18.7739C32.2081 18.7316 32.3027 18.6774 32.3898 18.6123C32.4614 18.5374 32.5166 18.4483 32.5518 18.3509C32.6125 18.1391 32.6048 17.9136 32.5298 17.7064C32.4961 17.6087 32.4415 17.5195 32.3698 17.445C32.2881 17.3664 32.1916 17.3046 32.0859 17.2634C31.9566 17.2227 31.8216 17.2025 31.686 17.2035L30.7163 17.2235L30.7383 18.8537Z" fill="white"/>
<path d="M37.902 18.9355C37.9018 19.2612 37.8608 19.5857 37.78 19.9013C37.7014 20.1658 37.5709 20.412 37.3961 20.6256C37.2392 20.8286 37.0326 20.988 36.7963 21.0886C36.5466 21.1927 36.2791 21.2476 36.0086 21.2502C35.7399 21.2545 35.473 21.2063 35.2228 21.1085C34.9869 21.0037 34.7742 20.8531 34.597 20.6656C34.4136 20.4628 34.2771 20.2223 34.1971 19.9612C34.0923 19.6567 34.0376 19.3373 34.0352 19.0153V18.7739C34.0352 18.4481 34.0762 18.1236 34.1571 17.8081C34.2435 17.5466 34.3726 17.3012 34.539 17.0817C34.7014 16.8842 34.9065 16.726 35.1388 16.6188C35.3888 16.5155 35.6561 16.4607 35.9266 16.4571C36.1997 16.4544 36.4709 16.5024 36.7263 16.5988C36.9621 16.7039 37.1748 16.8544 37.3521 17.0418C37.5395 17.2493 37.6763 17.4972 37.752 17.7662C37.8585 18.0778 37.9132 18.4047 37.914 18.734L37.902 18.9355ZM37.0742 18.694C37.0786 18.4627 37.0517 18.2318 36.9943 18.0076C36.9484 17.829 36.8734 17.6591 36.7723 17.5048C36.6755 17.3781 36.551 17.2751 36.4084 17.2034C36.2551 17.1392 36.0909 17.1046 35.9246 17.1017C35.7647 17.1044 35.607 17.139 35.4607 17.2034C35.3192 17.2777 35.2004 17.3887 35.1168 17.5247C35.0146 17.6791 34.9395 17.8499 34.8949 18.0296C34.8345 18.2592 34.8142 18.4975 34.8349 18.734V18.9754C34.8307 19.2061 34.8576 19.4363 34.9149 19.6598C34.9582 19.8429 35.0407 20.0145 35.1568 20.1627C35.2536 20.2899 35.378 20.3936 35.5207 20.466C35.6671 20.5298 35.8248 20.5637 35.9846 20.5658C36.1477 20.5744 36.3101 20.5398 36.4555 20.4655C36.6009 20.3912 36.724 20.2799 36.8123 20.1427C37.0171 19.778 37.1148 19.3631 37.0942 18.9455L37.0742 18.694Z" fill="white"/>
<path d="M40.4428 19.3167L39.5351 19.3366L39.5551 21.1505L38.7553 21.1704L38.6934 16.4791L40.3489 16.4572C40.5932 16.4548 40.8369 16.4823 41.0746 16.539C41.2735 16.5836 41.4595 16.673 41.6185 16.8004C41.7655 16.9199 41.8831 17.0714 41.9624 17.2434C42.0404 17.4335 42.0817 17.6366 42.0843 17.842C42.1027 18.1211 42.0243 18.398 41.8624 18.6262C41.697 18.8418 41.4825 19.0149 41.2366 19.1311L42.3262 21.0627V21.1026L41.4585 21.1245L40.4428 19.3167ZM39.5151 18.6721L40.3628 18.6522C40.4931 18.6516 40.6225 18.6315 40.7467 18.5923C40.8435 18.5554 40.9323 18.5005 41.0087 18.4307C41.0802 18.3638 41.135 18.2811 41.1686 18.1892C41.2141 18.0886 41.2287 17.9768 41.2106 17.868C41.2123 17.7571 41.1912 17.6471 41.1486 17.5447C41.119 17.4508 41.0636 17.3672 40.9887 17.3032C40.906 17.2311 40.8094 17.1768 40.7047 17.1436C40.5757 17.1014 40.4406 17.0805 40.3049 17.0817L39.4771 17.1017L39.5151 18.6721Z" fill="white"/>
<path d="M46.0315 17.0215L44.5599 17.0414L44.6199 21.0683L43.8201 21.0882L43.7601 17.0614L42.3086 17.0813V16.4169L46.0394 16.377L46.0315 17.0215Z" fill="white"/>
<path d="M30.2822 54.8115C26.8972 54.8128 23.6144 53.6544 20.9825 51.53C18.3506 49.4056 16.5291 46.4439 15.8226 43.1401C15.294 40.6497 15.4206 38.0652 16.19 35.6382C16.9594 33.2111 18.3454 31.0243 20.213 29.2905C22.0806 27.5568 24.3662 26.3352 26.8473 25.7448C29.3284 25.1544 31.9204 25.2152 34.3709 25.9213C36.8236 26.6272 39.0511 27.9554 40.8362 29.7765C42.6213 31.5976 43.903 33.8493 44.5563 36.3121C45.2096 38.7748 45.2122 41.3645 44.5639 43.8286C43.9155 46.2927 42.6383 48.547 40.8569 50.3716C39.5105 51.7628 37.9004 52.8732 36.1204 53.6382C34.3291 54.3962 32.4057 54.7943 30.4601 54.8095H30.2822V54.8115ZM30.2602 25.9273C28.1491 25.9291 26.0651 26.4012 24.1601 27.3091C22.2551 28.217 20.5772 29.5378 19.2488 31.1753C17.9204 32.8128 16.975 34.7255 16.4815 36.774C15.988 38.8226 15.9589 40.9552 16.3964 43.0164C17.0819 46.2162 18.856 49.0805 21.4175 51.1229C23.9789 53.1654 27.1698 54.26 30.4481 54.2208C32.3158 54.2051 34.1622 53.8234 35.8824 53.0974C38.2371 52.0762 40.2716 50.439 41.7709 48.3589C43.2701 46.2788 44.1785 43.8331 44.3998 41.2803C44.5642 39.3268 44.3205 37.3605 43.6842 35.5057C43.0479 33.651 42.0329 31.9483 40.7033 30.5052C39.3737 29.0622 37.7586 27.9102 35.96 27.1222C34.1613 26.3342 32.2184 25.9273 30.2542 25.9273H30.2602Z" fill="white"/>
<path d="M42.2991 39.909C42.3056 40.63 42.2514 41.3502 42.1371 42.0621C41.7052 44.5893 40.4738 46.912 38.6232 48.6899C36.7727 50.4679 34.4003 51.6077 31.8536 51.9423C29.3069 52.277 26.7197 51.7889 24.4711 50.5495C22.2225 49.3102 20.4307 47.3848 19.3581 45.0553C19.1048 44.4997 18.889 43.9277 18.7123 43.3432C18.1858 41.4949 18.1097 39.5478 18.4904 37.6642V37.6442C19.0932 34.7697 20.7288 32.2145 23.089 30.4606C23.3309 30.279 23.5928 30.0974 23.8347 29.9358C25.7052 28.7477 27.8717 28.1062 30.0888 28.084C30.3927 28.084 30.6886 28.084 30.9985 28.1039C33.1373 28.2279 35.2019 28.9308 36.9707 30.1373C37.837 30.7253 38.6234 31.4228 39.31 32.2126C39.6683 32.6268 39.9989 33.0641 40.2997 33.5216C40.4796 33.803 40.6616 34.1043 40.8235 34.4076C41.2185 35.1445 41.5361 35.9202 41.7712 36.7223C42.1049 37.7525 42.2828 38.8265 42.2991 39.909Z" fill="#FFDB92"/>
<path d="M26.1159 34.7606C25.652 35.5269 26.3378 36.8359 24.9062 36.4927C23.4747 36.1495 22.5869 36.0098 22.507 36.794C22.427 37.5782 23.5966 37.5802 23.6166 38.4263C23.6366 39.2724 23.1128 39.5537 22.305 39.1506C21.4973 38.7476 21.2573 38.1848 20.3476 38.566C19.4379 38.9471 18.8761 38.7076 18.6541 37.9833C18.6206 37.8665 18.5657 37.7569 18.4922 37.66V37.6401C19.095 34.7656 20.7306 32.2104 23.0908 30.4564C23.3327 30.2749 23.5946 30.0933 23.8366 29.9316C24.0709 29.9325 24.3019 29.9869 24.5119 30.0907C24.7219 30.1945 24.9054 30.3448 25.0482 30.5303C25.8939 31.5579 26.4597 31.0331 26.2778 32.2224C26.0959 33.4117 26.4198 33.5713 27.0776 33.5314C27.7354 33.4915 28.5511 33.4696 28.6511 33.9944C28.751 34.5192 26.5917 33.9964 26.1159 34.7606Z" fill="#FFB715"/>
<path d="M31.1906 41.8906C31.1906 41.8906 30.143 42.2518 29.8391 41.5075C29.5352 40.7632 29.8591 40.6016 28.9313 40.4C28.0036 40.1985 27.9037 39.5539 27.2978 39.6338C26.692 39.7136 26.9939 39.957 26.3081 40.4798C25.6224 41.0026 24.9766 40.7831 24.9965 41.729C25.0165 42.6748 26.0662 42.8165 26.2881 43.4411C26.5101 44.0657 26.1482 44.347 26.6121 44.81C27.0759 45.2729 27.9037 45.0714 27.5198 45.7159C27.1359 46.3604 26.5501 46.9132 26.854 47.9109C27.1579 48.9086 26.9539 48.9785 27.4798 49.7068C28.0056 50.4352 28.9913 50.6527 29.1333 50.1698C29.2752 49.6869 28.4275 49.0623 28.6894 48.5993C28.9513 48.1364 29.4152 48.4377 29.5771 47.7134C29.7391 46.989 30.4849 46.989 30.5249 46.4842C30.5648 45.9793 29.6371 45.237 29.981 44.9137C30.3249 44.5905 31.0707 45.4784 31.6145 44.6723C32.1583 43.8661 31.7765 43.2435 32.3423 42.4773C32.9561 41.705 31.5905 41.4476 31.1906 41.8906Z" fill="#FFB715"/>
<path d="M42.2998 39.9089C42.3063 40.6298 42.2521 41.35 42.1378 42.0619C41.8535 43.7158 41.2285 45.2929 40.3024 46.6934C39.9881 46.8084 39.6419 46.8013 39.3327 46.6734C37.8191 46.0908 38.9088 44.4585 39.4946 43.6543C40.0804 42.8502 38.5669 43.2113 37.4373 42.485C36.3076 41.7586 37.5172 39.7273 36.3876 40.0685C35.2579 40.4097 33.8863 40.8547 33.1886 39.7472C32.4908 38.6397 33.7744 38.4582 33.1886 37.5323C32.6027 36.6064 33.4925 36.0616 34.6421 35.9618C35.7918 35.8621 35.6098 35.0559 37.0234 34.9142C38.4369 34.7726 38.423 36.5645 39.9885 36.4248C41.554 36.2851 41.482 36.6463 41.482 36.6463C41.5922 36.645 41.7016 36.6653 41.8039 36.7062C42.1064 37.748 42.273 38.8245 42.2998 39.9089Z" fill="#FFB715"/>
<path d="M40.8658 34.4197C39.5742 35.0642 39.0304 33.3521 37.9407 33.8949C36.8511 34.4377 37.013 33.4319 36.1253 32.8074C35.2375 32.1828 33.5021 33.3521 33.5621 32.3644C33.622 31.3766 34.9616 31.6201 35.2176 30.8339C35.4735 30.0476 36.7711 30.2113 36.7711 30.2113C36.8511 30.1913 36.931 30.1694 36.993 30.1494C37.8598 30.7369 38.6461 31.4345 39.3323 32.2247C39.6906 32.6389 40.0212 33.0762 40.322 33.5337C40.5225 33.8168 40.7042 34.1128 40.8658 34.4197Z" fill="#FFB715"/>
<path d="M29.9116 31.1175C29.9116 31.1175 30.5774 30.1297 29.4877 29.8484C28.3981 29.567 28.4381 29.9481 27.5903 29.8683C26.7426 29.7885 26.4207 30.453 27.0665 31.1374C27.7123 31.8219 28.2361 33.1907 28.802 32.4664C29.3678 31.742 29.2458 31.1973 29.9116 31.1175Z" fill="#FFB715"/>
<path d="M35.4576 58.0073L25.0879 58.1572L25.1639 63.3927L35.5336 63.2428L35.4576 58.0073Z" fill="white"/>
</svg>
